PathFileType	4	(X/Y/Z)	D:\TRACE\v60_Jaco2_6-2-23\BothDRS_Motion1_3-v60.trc
DataRate	CameraRate	NumFrames	NumMarkers	Units	OrigDataRate	OrigDataStartFrame	OrigNumFrames
100.00	100.00	      17	9	mm	100.00	4421	      7073
Frame#	Time	front left toe			Front right toe			aft left toe			aft right toe			Arm			FL body			FR body			AL Body			AR Body			
		X1	Y1	Z1	X2	Y2	Z2	X3	Y3	Z3	X4	Y4	Z4	X5	Y5	Z5	X6	Y6	Z6	X7	Y7	Z7	X8	Y8	Z8	X9	Y9	Z9	

4421	44.200	-97.63339	10.17367	-315.98581	301.81699	68.16833	-391.12381	26.76155	86.15395	289.73495	369.48203	19.79467	247.07330	151.96628	1094.47949	-692.74121	2.71147	561.79803	-471.03937	161.49947	555.71399	-496.80545	153.67276	582.68433	462.95679	308.85156	571.12079	439.43069	
4422	44.210	-98.19557	10.58170	-315.81137	303.29224	59.75439	-392.70917	30.22878	77.14107	287.60953	369.07465	19.49684	246.98691	150.86784	1095.14282	-692.63379	2.93948	561.81281	-471.29590	161.04726	555.64081	-497.14496	155.03488	582.48419	462.11639	311.85223	571.04236	438.70895	
4423	44.220	-98.43734	10.78741	-315.72385	304.09399	51.45525	-394.56760	32.48249	68.43378	285.76706	368.65060	19.21752	246.97340	149.74181	1095.91357	-692.62317	3.23167	562.26129	-472.01291	160.70714	555.78198	-497.52954	156.73843	582.08063	461.27979	313.41357	570.91327	437.74353	
4424	44.230	-98.69921	11.01912	-315.71457	304.77802	43.12244	-396.04794	34.78411	59.53164	284.21533	368.47095	19.07365	246.99463	148.53087	1096.83679	-692.58783	3.50290	562.44165	-472.60498	161.52361	556.24170	-498.82639	158.70284	581.22864	460.51141	313.15335	570.43237	436.65762	
4425	44.240	-98.98961	10.94874	-315.54163	305.49496	35.41975	-397.68658	36.83448	50.97277	282.95111	368.18158	18.87434	246.97391	146.83914	1097.86890	-692.32379	3.82103	562.53473	-473.30957	161.42122	556.50189	-499.37723	160.19630	581.10461	459.44315	314.40118	570.15155	435.47412	
4426	44.250	-99.28657	10.96039	-315.40955	306.57993	28.68887	-399.12592	38.46196	43.55878	281.26456	367.84152	18.64834	246.93927	145.29504	1098.93335	-692.54382	4.15035	562.81726	-474.17957	161.91130	556.86932	-500.88876	161.33244	580.54749	458.45215	316.01514	569.89221	434.37500	
4427	44.260	-99.57883	11.30744	-315.25461	307.81232	22.86688	-401.08051	39.81891	36.81527	279.45288	367.61499	18.49703	246.97812	143.77197	1100.15771	-692.50427	4.35384	562.94653	-475.17886	161.75571	557.28308	-502.29651	163.11540	579.77631	457.16678	317.54260	569.78351	432.97485	
4428	44.270	-99.97658	11.72570	-315.20819	309.00983	16.84542	-403.23077	40.92146	30.75332	277.82080	367.00568	18.01999	246.86844	141.84683	1101.60217	-692.72314	4.31248	563.35321	-476.23999	163.30014	558.04932	-503.74704	164.16946	579.82513	456.13095	318.98419	569.55676	431.62875	
4429	44.280	-100.30882	12.05543	-315.17993	308.73361	12.97262	-405.82010	42.04054	24.18226	275.59302	366.64398	17.81905	246.83315	140.31667	1102.78333	-693.11273	4.52146	563.64600	-477.00452	162.59372	558.46069	-504.88165	165.31596	579.51056	454.90445	320.21170	569.27441	430.06638	
4430	44.290	-100.67576	12.47919	-314.90005	309.11960	10.66370	-405.55917	42.61342	17.85416	273.14374	366.34592	17.67487	246.93932	138.74512	1104.11218	-693.85754	4.39968	564.27228	-478.50223	162.64984	559.35809	-506.12250	166.60916	579.08966	453.51123	323.03583	569.23676	429.76050	
4431	44.300	-100.90675	12.67919	-315.09033	309.07031	11.06635	-406.96548	41.17017	17.31753	271.35864	365.74158	17.33099	246.65036	136.87354	1105.27966	-694.47729	3.93205	565.20264	-479.60379	162.39574	560.93683	-507.59366	168.01164	578.77954	452.32962	323.02423	569.07916	426.85333	
4432	44.310	-101.69496	13.38210	-316.06021	308.16821	10.88629	-406.10040	40.05432	15.75952	272.80875	365.63989	17.90708	246.19891	134.78075	1107.03210	-694.74969	3.93496	565.93860	-480.47391	162.37108	561.64142	-508.85754	169.31158	580.53253	450.94638	324.51892	570.97980	426.29221	
4433	44.320	-101.30187	15.14334	-316.10962	307.13965	10.46453	-406.70142	40.19670	18.09159	273.15378	364.52216	19.14711	246.12785	132.41728	1109.04199	-695.72052	3.92968	566.48004	-480.95361	160.97328	562.05273	-508.97424	171.19066	582.30023	450.17407	327.42517	572.95294	424.86703	
4434	44.330	-98.64273	18.04551	-314.45334	306.73227	10.54528	-406.80420	40.08596	16.16775	272.70154	363.23804	22.41118	247.91855	129.53885	1110.67407	-697.24780	3.22957	567.74084	-481.66144	160.61646	562.95056	-509.71924	171.86186	583.62109	449.13614	327.28748	574.23102	423.96893	
4435	44.340	-93.51372	21.15905	-311.87534	306.44131	10.73405	-406.71436	39.87368	16.53860	273.10684	361.62408	26.28015	251.30791	127.14439	1111.80139	-698.53979	3.04169	568.74237	-482.26678	160.39760	564.27643	-511.32236	173.24249	584.25787	448.29196	330.15024	574.82587	422.88324	
4436	44.350	-90.26702	30.28546	-312.30417	305.63409	11.00813	-406.84421	39.31036	16.67251	273.17084	360.60919	35.63532	251.04123	125.33166	1112.27478	-699.15851	2.73725	569.27722	-482.69769	159.62651	564.93158	-511.47647	174.19336	584.42328	447.35651	329.62454	574.76184	421.98596	
4437	44.360	-87.97730	39.08384	-312.92184	304.90118	11.08999	-406.54684	38.72765	15.91300	272.87885	360.14417	44.55569	250.40277	123.20475	1113.15479	-699.27795	2.24568	569.98834	-483.75455	159.77177	565.40051	-512.89209	175.38161	584.70605	446.48019	330.84113	575.39374	421.57822	
